<svg xmlns="http://www.w3.org/2000/svg" xmlns:xlink="http://www.w3.org/1999/xlink" width="18" height="18" viewBox="0 0 18 18">
  <defs>
    <path id="arrow-a" d="M105.206875,2.793125 C104.768729,3.23127065 104.768411,3.941547 105.206165,4.38008473 L110.69125,9.875 L98.125,9.875 C97.5036797,9.875 97,10.3786797 97,11 C97,11.6213203 97.5036797,12.125 98.125,12.125 L110.69125,12.125 L105.206165,17.6199153 C104.768411,18.058453 104.768729,18.7687293 105.206875,19.206875 C105.644906,19.6449058 106.355094,19.6449058 106.793125,19.206875 L114.204505,11.7954951 C114.643845,11.3561553 114.643845,10.6438447 114.204505,10.2045049 L106.793125,2.793125 C106.355094,2.35509416 105.644906,2.35509416 105.206875,2.793125 Z"/>
  </defs>
  <use fill="#FFF" transform="translate(-97 -2)" xlink:href="#arrow-a"/>
</svg>
