<svg xmlns="http://www.w3.org/2000/svg" width="319" height="42" viewBox="0 0 319 42">
  <g fill="none">
    <path fill="#2D3E51" d="M98.580668,17.2812701 C95.5852552,17.8893014 93.3307149,20.5375765 93.3307149,23.7124276 L93.3307149,23.7125724 C93.3307149,25.3578993 93.936217,26.8618035 94.9365442,28.0136083 L91.7918745,37.275 L83.4259766,37.275 L71.5410572,2.20206032 C71.3859646,1.74437482 71.6312646,1.24761998 72.0889501,1.09252733 C72.1794034,1.06187606 72.2742646,1.04624023 72.3697702,1.04624023 L77.6138744,1.04624023 C78.3774044,1.04624023 79.0527995,1.54126116 79.2826769,2.26936454 L85.7030849,22.6050781 C86.0826048,23.8771385 86.4744945,25.3598101 86.8787658,27.0531372 C87.283037,28.7464644 87.5346715,29.9235156 87.6336767,30.5843262 C87.8151862,29.0644618 88.4339595,26.4047391 89.490015,22.6050781 L95.9582238,2.2658835 C96.1892117,1.53954533 96.8637406,1.04624023 97.6259234,1.04624023 L102.872042,1.04624023 C103.355291,1.04624023 103.747042,1.43799108 103.747042,1.92124023 C103.747042,2.01692564 103.731347,2.11196316 103.700583,2.20256802 L98.580668,17.2812701 Z M30.023178,18.8136963 C30.023178,24.7775119 28.3277393,29.3452966 24.9368111,32.5171875 C21.5458828,35.6890784 16.6493239,37.275 10.2469874,37.275 L0.875,37.275 C0.391750844,37.275 5.7346689e-14,36.8832492 5.68434189e-14,36.4 L5.68434189e-14,1.92124023 C5.67842379e-14,1.43799108 0.391750844,1.04624023 0.875,1.04624023 L11.3607903,1.04624023 C17.2681008,1.04624023 21.8552732,2.60738185 25.1224449,5.72971191 C28.3896166,8.85204198 30.023178,13.2133265 30.023178,18.8136963 Z M22.0532989,19.0119385 C22.0532989,11.2308937 18.62117,7.34042969 11.7568092,7.34042969 L7.67286494,7.34042969 L7.67286494,30.93125 L10.9647715,30.93125 C18.3571601,30.93125 22.0532989,26.9581859 22.0532989,19.0119385 Z M46.7837272,36.0378691 L38.4505271,8.85202637 L38.2277665,8.85202637 C38.541283,14.6341191 38.6980388,18.4915431 38.6980388,20.4244141 L38.6980388,36.4 C38.6980388,36.8832492 38.306288,37.275 37.8230388,37.275 L32.7169628,37.275 C32.2337136,37.275 31.8419628,36.8832492 31.8419628,36.4 L31.8419628,1.92124023 C31.8419628,1.43799108 32.2337136,1.04624023 32.7169628,1.04624023 L40.9962134,1.04624023 C41.7636303,1.04624023 42.4415142,1.54622657 42.6681553,2.27941317 L50.8508669,28.7505859 L50.9993739,28.7505859 L59.6880366,2.25101085 C59.923707,1.53223912 60.5945118,1.04624023 61.3509331,1.04624023 L69.6530528,1.04624023 C70.1363019,1.04624023 70.5280528,1.43799108 70.5280528,1.92124023 L70.5280528,36.4 C70.5280528,36.8832492 70.1363019,37.275 69.6530528,37.275 L64.2499625,37.275 C63.7667134,37.275 63.3749625,36.8832492 63.3749625,36.4 L63.3749625,20.1270508 C63.3749625,19.3175578 63.387338,18.3841768 63.4120893,17.3268799 C63.4368406,16.2695829 63.5482198,13.46118 63.7462302,8.90158691 L63.5234696,8.90158691 L54.5880005,36.0717178 C54.351867,36.7897301 53.681437,37.275 52.9255927,37.275 L48.4568875,37.275 C47.6879405,37.275 47.009081,36.7730528 46.7837272,36.0378691 Z"/>
    <path fill="#1B8974" d="M96.5884819,23.6706641 L96.5884819,23.6705957 C96.5884819,21.9598937 97.9752799,20.5730957 99.6859819,20.5730957 L106.782364,20.5730957 C108.493066,20.5730957 109.879864,21.9598937 109.879864,23.6705957 L109.879864,23.6706641 C109.879864,25.3813661 108.493066,26.7681641 106.782364,26.7681641 L99.6859819,26.7681641 C97.9752799,26.7681641 96.5884819,25.3813661 96.5884819,23.6706641 Z"/>
    <path fill="#2D3E51" d="M113.021318 36.47875C112.348355 36.47875 111.851653 35.9654218 111.531194 34.93875 111.210736 33.9120782 111.050509 32.6127162 111.050509 31.040625 111.050509 28.1531106 111.95579 24.2309623 113.766379 19.2740625 115.576968 14.3171627 117.651904 9.91376925 119.991249 6.06375 122.330594 2.21373075 124.237292.28875 125.7114.28875 126.352316.28875 126.85703.641663138 127.225557 1.3475 127.594084 2.05333686 127.778345 2.83937067 127.778345 3.705625 127.778345 5.18146571 127.241586 7.15457098 126.168051 9.625 125.094515 12.095429 123.68452 14.4775927 121.938023 16.7715625 120.191526 19.0655323 118.388975 20.7579112 116.530318 21.84875 115.44076 24.7362644 114.895989 27.4633205 114.895989 30.03L114.944057 31.040625C115.008149 30.9443745 115.152353 30.5914614 115.376674 29.981875 116.01759 28.3135333 116.690542 26.8056317 117.395551 25.458125 118.100559 24.1106183 119.06993 22.85136 120.303694 21.6803125 121.537459 20.509265 122.971488 19.92375 124.605824 19.92375 126.079932 19.92375 127.153451 20.3969744 127.826414 21.3434375 128.499376 22.2899006 128.835852 23.4047852 128.835852 24.688125 128.835852 25.4260454 128.739716 26.1158301 128.547441 26.7575 128.355166 27.3991699 128.066758 28.2172867 127.682208 29.211875 127.618116 29.340209 127.497946 29.6369768 127.321694 30.1021875 127.145442 30.5673982 127.017261 30.9844773 126.937146 31.3534375 126.857032 31.7223977 126.816975 32.0512486 126.816975 32.34 126.816975 33.3666718 127.249587 33.88 128.114824 33.88 128.819833 33.88 129.653011 33.5270869 130.614386 32.82125 131.575761 32.1154131 132.521098 31.1689643 133.450427 29.981875 134.379756 28.7947857 135.18089 27.5114652 135.853852 26.131875L136.622948 26.95C135.437252 29.5808465 134.003223 31.7143668 132.320818 33.350625 130.638412 34.9868832 128.835861 35.805 126.913112 35.805 125.727417 35.805 124.806113 35.4921906 124.149174 34.8665625 123.492234 34.2409344 123.16377 33.4308383 123.16377 32.43625 123.16377 31.7945801 123.388087 30.6395917 123.836729 28.97125 124.317416 27.3991588 124.557756 26.2281288 124.557756 25.458125 124.557756 24.1106183 123.98094 23.436875 122.82729 23.436875 121.673641 23.436875 120.704269 24.0384315 119.919146 25.2415625 119.134024 26.4446935 118.244766 28.21728 117.251345 30.559375 116.450199 32.5485516 115.745202 34.0323909 115.136331 35.0109375 114.527461 35.9894841 113.822463 36.47875 113.021318 36.47875zM117.539756 18.76875C118.853635 17.5816607 120.119426 16.0416761 121.337167 14.14875 122.554908 12.2558239 123.548314 10.4190714 124.317414 8.6384375 125.086513 6.8578036 125.471057 5.58250385 125.471057 4.8125 125.086507 4.97291747 124.397533 5.75093052 123.404112 7.1465625 122.410692 8.54219448 121.369218 10.2907187 120.27966 12.3921875 119.190102 14.4936563 118.27681 16.6191559 117.539756 18.76875zM137.247838 36.911875C136.126234 36.911875 135.188908 36.5429204 134.435831 35.805 133.682755 35.0670796 133.306222 34.0243817 133.306222 32.676875 133.306222 30.8160324 133.987185 28.7306365 135.349133 26.420625 136.71108 24.1106134 138.44954 22.1535497 140.564564 20.549375 142.679588 18.9452003 144.794581 18.143125 146.909605 18.143125 148.319621 18.143125 149.497288 18.5040589 150.44264 19.2259375 151.387991 19.9478161 151.86066 20.8702027 151.86066 21.993125 151.86066 23.4689657 150.947368 24.238958 149.120756 24.303125 150.274406 24.6560434 150.851222 25.1372886 150.851222 25.746875 150.851222 25.9714595 150.739063 26.3083311 150.514742 26.7575 150.290422 27.2066689 150.034059 27.6718726 149.745646 28.153125 149.232913 28.9872958 148.832346 29.7171844 148.543934 30.3428125 148.255522 30.9684406 148.111318 31.5539556 148.111318 32.099375 148.111318 32.580625 148.231488 32.9896858 148.471831 33.3265625 148.712175 33.6634392 149.072685 33.831875 149.553372 33.831875 150.450655 33.831875 151.596276 33.2062563 152.99027 31.955 154.384263 30.7037437 155.738179 28.8268875 157.052057 26.324375L157.965359 27.23875C156.779663 29.90168 155.305578 32.0432211 153.543057 33.6634375 151.780537 35.2836539 150.002021 36.09375 148.207455 36.09375 146.925622 36.09375 145.940227 35.6686501 145.251242 34.8184375 144.562257 33.9682249 144.21777 32.9977138 144.21777 31.906875 142.775708 33.6393837 141.541962 34.9066627 140.516496 35.70875 139.491029 36.5108373 138.401488 36.911875 137.247838 36.911875zM138.257277 34.4575C139.37888 34.4575 140.684728 33.6474039 142.174859 32.0271875 143.664989 30.4069711 145.355381 28.297513 147.246085 25.69875L148.207455 24.399375C148.303592 24.2389575 148.431773 24.15875 148.592003 24.15875L148.784277 24.206875C148.944506 23.6935391 149.024619 23.1000034 149.024619 22.42625 149.024619 20.7579083 148.351667 19.92375 147.005742 19.92375 145.595726 19.92375 144.12164 20.6777008 142.583441 22.185625 141.045241 23.6935492 139.755416 25.4901979 138.713927 27.575625 137.672438 29.6610521 137.151701 31.4416593 137.151701 32.9175 137.151701 33.4629194 137.239826 33.8559363 137.416078 34.0965625 137.59233 34.3371887 137.872727 34.4575 138.257277 34.4575zM172.097496 35.6125C170.879754 35.6125 169.934417 35.3077114 169.261455 34.698125 168.588492 34.0885386 168.252016 33.2864633 168.252016 32.291875 168.252016 31.8747896 168.324118 31.3935444 168.468324 30.848125 168.612531 30.3027056 168.764746 29.7572944 168.924975 29.211875 169.373617 27.7360343 169.597934 26.6452119 169.597934 25.939375 169.597934 25.2977051 169.437707 24.8244807 169.117249 24.5196875 168.796791 24.2148943 168.396224 24.0625 167.915537 24.0625 166.217108 24.0625 164.502682 25.1292602 162.772208 27.2628125 161.041734 29.3963648 159.183104 32.0993586 157.196263 35.371875 155.818292 35.371875 154.776819 34.9066713 154.071811 33.97625L154.504427 32.773125C156.395131 28.1851854 157.340468 24.7843861 157.340468 22.570625 157.596835 22.2818736 157.965356 22.0171887 158.446044 21.7765625 158.926731 21.5359363 159.391388 21.415625 159.84003 21.415625 160.384809 21.415625 160.801398 21.543957 161.089811 21.800625 161.378223 22.0572929 161.522427 22.4102061 161.522427 22.859375 161.522427 23.7256293 161.250042 25.1533234 160.705263 27.1425 162.147325 25.2174904 163.645445 23.6454228 165.199667 22.42625 166.753889 21.2070772 168.284054 20.5975 169.790208 20.5975 171.072041 20.5975 172.065447 21.0386414 172.770455 21.9209375 173.475463 22.8032336 173.827961 23.8539522 173.827961 25.073125 173.827961 25.7789619 173.739837 26.4527051 173.563585 27.094375 173.387333 27.7360449 173.122959 28.4579127 172.770455 29.26 172.225676 30.6075067 171.95329 31.6181216 171.95329 32.291875 171.95329 32.7731274 172.065449 33.1260405 172.28977 33.350625 172.51409 33.5752095 172.786476 33.6875 173.106934 33.6875 174.164446 33.6875 175.310067 32.9576115 176.543831 31.4978125 177.777595 30.0380135 178.891171 28.3135516 179.884592 26.324375L180.701756 26.998125C179.548106 29.661055 178.274304 31.7624923 176.880311 33.3025 175.486318 34.8425077 173.892062 35.6125 172.097496 35.6125zM181.951537 36.09375C180.894025 36.09375 179.948687 35.7247954 179.115496 34.986875 178.282304 34.2489546 177.865715 33.1741737 177.865715 31.7625 177.865715 29.9658243 178.55469 27.8884493 179.93266 25.5303125 181.31063 23.1721757 183.057102 21.1589667 185.172126 19.490625 187.28715 17.8222833 189.402143 16.988125 191.517167 16.988125 193.087412 16.988125 193.872523 17.5014532 193.872523 18.528125 193.872523 19.0414609 193.680251 19.4104155 193.295701 19.635 193.039335 19.2820816 192.478541 19.105625 191.613304 19.105625 189.978967 19.105625 188.424768 19.819472 186.95066 21.2471875 185.476552 22.674903 184.282863 24.3512404 183.369557 26.27625 182.456251 28.2012596 181.999605 29.8054102 181.999605 31.08875 181.999605 31.7304199 182.127787 32.2277066 182.384153 32.580625 182.64052 32.9335434 183.025064 33.11 183.537797 33.11 184.43508 33.11 185.484565 32.588651 186.686283 31.5459375 187.888002 30.503224 189.121747 29.0193846 190.387557 27.094375 191.653367 25.1693654 192.782966 22.9235545 193.776386 20.356875 196.27596 13.9401762 198.390953 8.94324705 200.121427 5.3659375 201.851902 1.78862795 203.358033 3.55271368e-15 204.639866 3.55271368e-15 204.99237 3.55271368e-15 205.304812.136352803 205.577201.4090625 205.849591.681772197 205.985783 1.02666458 205.985783 1.44375 205.985783 1.98916939 205.737432 2.82332772 205.240722 3.94625 204.744012 5.06917228 203.902821 6.83373797 202.717126 9.24 200.377781 13.9883571 198.519151 18.1350864 197.141181 21.6803125 195.76321 25.2255386 195.074235 28.4418606 195.074235 31.329375 195.074235 32.0993788 195.146337 32.6207278 195.290544 32.8934375 195.43475 33.1661472 195.683101 33.3025 196.035605 33.3025 197.125163 33.3025 198.374932 32.6608397 199.784948 31.3775 201.194964 30.0941602 202.42871 28.3616776 203.486222 26.18L204.399523 26.95C203.342011 29.5808465 201.883948 31.7304083 200.02529 33.39875 198.166633 35.0670917 196.324025 35.90125 194.497414 35.90125 193.247626 35.90125 192.350357 35.5162538 191.805578 34.74625 191.260799 33.9762461 190.988414 32.9656313 190.988414 31.714375 190.988414 30.9764546 191.116595 29.9337567 191.372961 28.58625 189.802716 30.8641781 188.184426 32.684889 186.518044 34.0484375 184.851661 35.411986 183.329507 36.09375 181.951537 36.09375zM207.283633 38.163125C205.489067 38.163125 204.111117 37.6016723 203.149742 36.47875 202.188368 35.3558277 201.707688 33.7837601 201.707688 31.7625 201.707688 28.7466516 202.669048 24.7122128 204.591797 19.6590625 206.514546 14.6059122 208.709652 10.1142905 211.177181 6.1840625 213.644709 2.25383452 215.583452.28875 216.993468.28875 217.602339.28875 218.075008.625621631 218.411489 1.299375 218.74797 1.97312837 218.932231 2.74312067 218.964277 3.609375 218.964277 5.1493827 218.435528 7.16259173 217.378016 9.6490625 216.320504 12.1355333 214.934543 14.5176969 213.220092 16.795625 211.50564 19.0735531 209.70309 20.7579112 207.812386 21.84875 207.363745 22.6829208 206.891076 24.0544696 206.394366 25.9634375 205.897655 27.8724054 205.649304 29.7091578 205.649304 31.47375 205.649304 32.8854237 205.849587 34.0163499 206.25016 34.8665625 206.650733 35.7167751 207.283628 36.141875 208.148866 36.141875 208.982057 36.141875 209.879327 35.7648996 210.840701 35.0109375 211.802076 34.2569754 212.587187 33.3185473 213.196057 32.195625 212.042408 31.5539551 211.15315 30.6636515 210.528256 29.5246875 209.903362 28.3857235 209.59092 27.1585482 209.59092 25.843125 209.59092 24.3031173 210.00751 23.0438591 210.840701 22.0653125 211.673893 21.0867659 212.715366 20.5975 213.965153 20.5975 215.054711 20.5975 215.919935 21.0065584 216.560852 21.8246875 217.201768 22.6428166 217.522222 23.8379088 217.522222 25.41 217.522222 27.3670931 217.041542 29.3883229 216.080167 31.47375L216.9454 31.521875C218.419508 31.521875 219.637231 31.0085468 220.598605 29.981875 221.55998 28.9552032 222.409182 27.6879242 223.146235 26.18L223.867263 27.190625C223.002026 29.1798016 221.984586 30.6475994 220.814914 31.5940625 219.645241 32.5405256 218.147121 33.01375 216.320509 33.01375 215.871868 33.01375 215.535392 32.9977085 215.311071 32.965625 214.317651 34.5377162 213.147996 35.7969744 211.802071 36.7434375 210.456147 37.6899006 208.950015 38.163125 207.283633 38.163125zM208.725688 18.816875C210.039566 17.6297857 211.305357 16.0817804 212.523098 14.1728125 213.74084 12.2638446 214.734245 10.4190714 215.503345 8.6384375 216.272445 6.8578036 216.673012 5.58250385 216.705057 4.8125 216.288462 4.97291747 215.567441 5.77499278 214.541975 7.21875 213.516509 8.66250722 212.459013 10.4350937 211.369455 12.5365625 210.279897 14.6380313 209.39865 16.7314479 208.725688 18.816875zM214.013222 30.6075C214.590047 29.2920768 214.878455 27.9285487 214.878455 26.516875 214.878455 25.4260362 214.750273 24.5918779 214.493907 24.014375 214.23754 23.4368721 213.901064 23.148125 213.484468 23.148125 213.067873 23.148125 212.707363 23.4368721 212.402927 24.014375 212.098492 24.5918779 211.946277 25.2816627 211.946277 26.08375 211.946277 26.8858373 212.114515 27.7119749 212.450996 28.5621875 212.787477 29.4124001 213.308214 30.0941641 214.013222 30.6075zM225.068975 36.19C223.755096 36.19 222.801748 35.7568793 222.2089 34.890625 221.616052 34.0243707 221.319633 32.9495897 221.319633 31.66625 221.319633 30.3187433 221.600029 28.9231322 222.160831 27.479375 222.721633 26.0356178 223.450665 24.8325048 224.347948 23.87 225.245231 22.9074952 226.158523 22.42625 227.087852 22.42625 227.472402 22.42625 227.969105 22.554582 228.577975 22.81125 228.77025 21.3354093 229.290987 20.1162548 230.140201 19.15375 230.989415 18.1912452 232.183104 17.71 233.721304 17.71 235.003137 17.71 235.948474 18.0709339 236.557345 18.7928125 237.166216 19.5146911 237.470646 20.4531192 237.470646 21.608125 237.470646 22.7310473 237.174227 24.0143678 236.581379 25.458125 235.988532 26.9018822 235.227455 28.3456178 234.298126 29.789375 234.682676 29.981876 235.131311 30.078125 235.644044 30.078125 236.541327 30.078125 237.502687 29.7813571 238.528153 29.1878125 239.55362 28.5942679 240.33873 27.6879228 240.883509 26.46875L241.748742 27.094375C241.07578 28.6343827 240.170499 29.8054127 239.032872 30.6075 237.895246 31.4095873 236.717579 31.810625 235.499838 31.810625 234.762784 31.810625 233.961651 31.6662514 233.096414 31.3775 231.910718 32.7891737 230.612882 33.9441622 229.202866 34.8425 227.792849 35.7408378 226.4149 36.19 225.068975 36.19zM232.663797 28.77875C233.464943 27.5916607 234.129883 26.3564647 234.65864 25.073125 235.187396 23.7897852 235.45177 22.6347968 235.45177 21.608125 235.45177 20.1964513 235.003135 19.490625 234.105852 19.490625 233.689256 19.490625 233.256644 19.6991646 232.808003 20.11625 232.359361 20.5333354 231.99084 21.0867674 231.702427 21.7765625 231.414015 22.4663576 231.269811 23.2283292 231.269811 24.0625 231.269811 24.8004204 231.397992 25.6425994 231.654359 26.5890625 231.910725 27.5355256 232.247201 28.2654141 232.663797 28.77875zM226.799441 33.735625C227.376266 33.735625 228.081263 33.4147949 228.914455 32.773125 229.747646 32.1314551 230.580825 31.3133383 231.414016 30.31875 229.587404 28.7145753 228.626044 26.3564739 228.529907 23.244375 228.145357 23.436876 227.680699 24.0304117 227.13592 25.025 226.591141 26.0195883 226.126484 27.1264522 225.741934 28.345625 225.357384 29.5647978 225.165112 30.6235372 225.165112 31.521875 225.165112 32.9977157 225.709883 33.735625 226.799441 33.735625zM242.950455 36.19C241.636576 36.19 240.683227 35.7568793 240.090379 34.890625 239.497532 34.0243707 239.201112 32.9495897 239.201112 31.66625 239.201112 30.3187433 239.481509 28.9231322 240.042311 27.479375 240.603113 26.0356178 241.332144 24.8325048 242.229427 23.87 243.12671 22.9074952 244.040002 22.42625 244.969331 22.42625 245.353881 22.42625 245.850584 22.554582 246.459455 22.81125 246.65173 21.3354093 247.172466 20.1162548 248.021681 19.15375 248.870895 18.1912452 250.064584 17.71 251.602783 17.71 252.884616 17.71 253.829954 18.0709339 254.438824 18.7928125 255.047695 19.5146911 255.352126 20.4531192 255.352126 21.608125 255.352126 22.7310473 255.055706 24.0143678 254.462859 25.458125 253.870011 26.9018822 253.108934 28.3456178 252.179605 29.789375 252.564155 29.981876 253.01279 30.078125 253.525523 30.078125 254.422806 30.078125 255.384166 29.7813571 256.409633 29.1878125 257.435099 28.5942679 258.22021 27.6879228 258.764989 26.46875L259.630222 27.094375C258.957259 28.6343827 258.051979 29.8054127 256.914352 30.6075 255.776725 31.4095873 254.599059 31.810625 253.381318 31.810625 252.644264 31.810625 251.84313 31.6662514 250.977893 31.3775 249.792198 32.7891737 248.494361 33.9441622 247.084345 34.8425 245.674329 35.7408378 244.296379 36.19 242.950455 36.19zM250.545277 28.77875C251.346422 27.5916607 252.011363 26.3564647 252.540119 25.073125 253.068875 23.7897852 253.333249 22.6347968 253.333249 21.608125 253.333249 20.1964513 252.884614 19.490625 251.987331 19.490625 251.570736 19.490625 251.138124 19.6991646 250.689482 20.11625 250.240841 20.5333354 249.872319 21.0867674 249.583907 21.7765625 249.295494 22.4663576 249.15129 23.2283292 249.15129 24.0625 249.15129 24.8004204 249.279472 25.6425994 249.535838 26.5890625 249.792205 27.5355256 250.128681 28.2654141 250.545277 28.77875zM244.68092 33.735625C245.257745 33.735625 245.962743 33.4147949 246.795934 32.773125 247.629125 32.1314551 248.462304 31.3133383 249.295496 30.31875 247.468884 28.7145753 246.507524 26.3564739 246.411386 23.244375 246.026836 23.436876 245.562179 24.0304117 245.0174 25.025 244.472621 26.0195883 244.007963 27.1264522 243.623414 28.345625 243.238864 29.5647978 243.046592 30.6235372 243.046592 31.521875 243.046592 32.9977157 243.591362 33.735625 244.68092 33.735625zM272.897126 36.47875C271.647339 36.47875 270.589843 35.9734426 269.724605 34.9628125 268.859368 33.9521824 268.218461 32.7410487 267.801866 31.329375 267.38527 29.9177013 267.176975 28.6504223 267.176975 27.5275 271.310886 26.5970787 273.377811 25.1693846 273.377811 23.244375 273.377811 22.6668721 273.19355 22.2016684 272.825023 21.84875 272.456496 21.4958316 271.935759 21.319375 271.262797 21.319375 269.308002 21.319375 267.585565 22.5625917 266.095434 25.0490625 264.605303 27.5355333 263.251388 30.4149836 262.033646 33.6875 261.681142 34.6500048 261.344666 35.2996858 261.024208 35.6365625 260.70375 35.9734392 260.239092 36.141875 259.630222 36.141875 259.117489 36.141875 258.676865 35.9172939 258.308338 35.468125 257.939811 35.0189561 257.755551 34.0404242 257.755551 32.5325 257.755551 28.8428982 258.700888 24.4555463 260.591592 19.3703125 262.482295 14.2850787 264.645356 9.83356076 267.080838 6.015625 269.516321 2.19768924 271.37495.28875 272.656783.28875 273.201562.28875 273.658208.625621631 274.026735 1.299375 274.395262 1.97312837 274.579523 2.80728669 274.579523 3.801875 274.579523 5.24563222 274.154922 6.90592812 273.305708 8.7828125 272.456494 10.6596969 271.270816 12.4643663 269.74864 14.196875 268.226463 15.9293837 266.520049 17.3570777 264.629345 18.48 263.796154 20.4691766 263.123201 22.4823856 262.610468 24.5196875 262.097735 26.5569894 261.777282 28.4097833 261.649098 30.078125 265.110047 22.1214185 268.66708 18.143125 272.320304 18.143125 273.602137 18.143125 274.723724 18.6003079 275.685098 19.5146875 276.646473 20.4290671 277.127153 21.5439518 277.127153 22.859375 277.127153 24.0464643 276.726586 25.0650999 275.925441 25.9153125 275.124295 26.7655251 274.178958 27.4071853 273.0894 27.8403125 271.999842 28.2734397 271.038482 28.5060415 270.20529 28.538125 270.525748 30.0139657 270.966372 31.3213485 271.527174 32.4603125 272.087976 33.5992765 272.913143 34.16875 274.002701 34.16875 275.156351 34.16875 276.374074 33.4067785 277.655907 31.8828125 278.93774 30.3588465 280.107395 28.425845 281.164907 26.08375L281.837866 26.901875C280.940583 29.500638 279.658769 31.7464489 277.992386 33.639375 276.326003 35.5323011 274.6276 36.47875 272.897126 36.47875zM266.023331 15.2075C267.593577 13.8279098 269.027606 12.1676139 270.325461 10.2265625 271.623317 8.28551113 272.288258 6.48084167 272.320304 4.8125 271.807571 5.03708446 270.926324 6.15998989 269.676537 8.18125 268.42675 10.2025101 267.209027 12.54457 266.023331 15.2075zM283.122605 34.9125C282.738055 34.9125 282.449647 34.811876 282.257372 34.610625 282.065097 34.409374 281.968961 34.1775013 281.968961 33.915 281.968961 33.6174985 282.156864 33.3112516 282.532674 32.99625 282.908484 32.6812484 283.271179 32.52375 283.62077 32.52375 283.848004 32.52375 284.049015 32.5893743 284.223811 32.720625 284.398606 32.8518757 284.486003 33.0574986 284.486003 33.3375 284.486003 33.4950008 284.429195 33.7006237 284.315578 33.954375 284.201961 34.2081263 284.044647 34.431249 283.843633 34.62375 283.642618 34.816251 283.402278 34.9125 283.122605 34.9125zM289.651181 35.49C288.882081 35.49 288.296525 35.2581273 287.894496 34.794375 287.492466 34.3306227 287.291455 33.7312537 287.291455 32.99625 287.291455 32.2787464 287.444398 31.5262539 287.75029 30.73875 288.056182 29.9512461 288.453836 29.2906277 288.943263 28.756875 289.43269 28.2231223 289.939589 27.95625 290.463975 27.95625 290.621291 27.95625 290.88348 28.0262493 291.250551 28.16625 291.355428 27.361246 291.643836 26.6962526 292.115783 26.17125 292.587731 25.6462474 293.208245 25.38375 293.977345 25.38375 295.358229 25.38375 296.04866 26.0924929 296.04866 27.51 296.04866 28.1750033 295.904456 28.8924961 295.616044 29.6625 295.327631 30.4325038 294.929978 31.1937462 294.423071 31.94625 294.737703 32.0512505 294.991152 32.10375 295.183427 32.10375 296.022445 32.10375 296.730356 31.8237528 297.307181 31.26375 297.884005 30.7037472 298.347206 30.03875 298.696797 29.26875 299.046388 28.4987461 299.387234 27.5800053 299.719345 26.5125 299.562029 26.319999 299.483372 26.10125 299.483372 25.85625 299.483372 25.5062482 299.557659 25.1825015 299.706235 24.885 299.854812 24.5874985 300.029604 24.35125 300.230619 24.17625 300.431634 24.0012491 300.602057 23.91375 300.741893 23.91375 301.126443 23.91375 301.318715 24.1849973 301.318715 24.7275 301.318715 24.7975003 301.270647 24.9593737 301.174509 25.213125 301.078372 25.4668763 301.030304 25.6199997 301.030304 25.6725 301.030304 25.7950006 301.095851 25.9087495 301.226948 26.01375 301.358044 26.1187505 301.572165 26.2762489 301.869318 26.48625 302.481102 26.8712519 302.966151 27.260623 303.324482 27.654375 303.682813 28.048127 303.861975 28.5599969 303.861975 29.19 303.861975 29.5750019 303.796428 29.964373 303.665331 30.358125 303.534235 30.751877 303.355072 31.2199973 303.127838 31.7625 302.778247 32.5325038 302.603455 33.0837483 302.603455 33.41625 302.603455 33.6612512 302.660262 33.8274996 302.773879 33.915 302.887496 34.0025004 303.04918 34.04625 303.258934 34.04625 303.765841 34.04625 304.320808 33.8362521 304.923852 33.41625 305.526896 32.9962479 306.081866 32.484378 306.58877 31.880625 307.095676 31.276872 307.462741 30.7125026 307.689975 30.1875L308.214359 30.555C307.620054 31.8325064 306.811638 32.9524952 305.789085 33.915 304.766532 34.8775048 303.704666 35.35875 302.603455 35.35875 301.956712 35.35875 301.427964 35.1881267 301.017194 34.846875 300.606425 34.5056233 300.401044 34.0550028 300.401044 33.495 300.401044 33.1449983 300.462221 32.773127 300.584578 32.379375 300.706935 31.985623 300.890467 31.5087528 301.135181 30.94875 301.344935 30.4237474 301.502249 30.0081265 301.607126 29.701875 301.712003 29.3956235 301.764441 29.1112513 301.764441 28.84875 301.764441 28.1312464 301.30124 27.5275025 300.374824 27.0375 299.955316 28.2800062 299.557662 29.299371 299.181852 30.095625 298.806042 30.891879 298.277294 31.591872 297.595592 32.195625 296.91389 32.799378 296.057405 33.10125 295.026112 33.10125 294.589124 33.10125 294.169621 33.0225008 293.767592 32.865 293.120849 33.6525039 292.439157 34.2868726 291.722496 34.768125 291.005835 35.2493774 290.315403 35.49 289.651181 35.49zM293.610277 31.29C294.012306 30.694997 294.322563 30.0825031 294.541057 29.4525 294.759552 28.8224968 294.868797 28.2275028 294.868797 27.6675 294.868797 27.2824981 294.79888 26.985001 294.659044 26.775 294.519207 26.5649989 294.361894 26.46 294.187098 26.46 293.820028 26.46 293.474812 26.6874977 293.151441 27.1425 292.828069 27.5975023 292.666386 28.1487468 292.666386 28.79625 292.666386 29.198752 292.758152 29.6274977 292.941687 30.0825 293.125223 30.5375023 293.348083 30.9399982 293.610277 31.29zM290.175564 34.1775C290.507675 34.1775 290.909699 33.9981268 291.381646 33.639375 291.853594 33.2806232 292.334274 32.8212528 292.823701 32.26125 291.792408 31.4212458 291.25929 30.1262587 291.224331 28.37625 290.839781 28.81375 290.429018 29.5181201 289.99203 30.489375 289.555041 31.4606299 289.336551 32.2262472 289.336551 32.78625 289.336551 33.2412523 289.410837 33.5868738 289.559414 33.823125 289.70799 34.0593762 289.913371 34.1775 290.175564 34.1775zM308.450331 42C307.960904 42 307.5414 41.8556264 307.191811 41.566875 306.84222 41.2781236 306.667427 40.8625027 306.667427 40.32 306.667427 39.6374966 306.925247 39.0162528 307.440893 38.45625 307.956539 37.8962472 308.555205 37.419377 309.236907 37.025625 309.918609 36.631873 310.818791 36.1725026 311.937482 35.6475 312.374471 34.5449945 312.724056 33.4512554 312.986249 32.36625 311.570406 34.1512589 310.241981 35.04375 309.000934 35.04375 308.301752 35.04375 307.746785 34.7987524 307.336016 34.30875 306.925247 33.8187475 306.719866 33.171254 306.719866 32.36625 306.719866 31.1937441 307.104414 30.0825052 307.873509 29.0325 308.642609 27.9824947 309.59523 27.1381282 310.7314 26.499375 311.86757 25.8606218 312.951285 25.54125 313.982578 25.54125 314.524444 25.54125 314.939576 25.637499 315.227989 25.83 315.516401 26.022501 315.660605 26.2587486 315.660605 26.53875 315.660605 26.7137509 315.608167 26.8712493 315.50329 27.01125 315.398413 27.1512507 315.311017 27.2299999 315.241098 27.2475 315.066303 27.0724991 314.89151 26.9500003 314.716715 26.88 314.54192 26.8099996 314.323429 26.775 314.061235 26.775 313.204738 26.775 312.374472 27.0943718 311.570414 27.733125 310.766355 28.3718782 310.115252 29.1418705 309.617085 30.043125 309.118918 30.9443795 308.869838 31.7537464 308.869838 32.47125 308.869838 32.8212517 308.944125 33.0881241 309.092701 33.271875 309.241277 33.4556259 309.437919 33.5475 309.682633 33.5475 310.15458 33.5475 310.735766 33.2412531 311.426208 32.62875 312.11665 32.0162469 312.802711 31.22875 313.484414 30.26625 313.676688 29.2862451 313.903919 28.5818771 314.166112 28.153125 314.428305 27.7243729 314.80411 27.51 315.293537 27.51 315.520771 27.51 315.77422 27.5449996 316.053893 27.615 316.053893 28.0700023 315.861621 28.9799932 315.477071 30.345 315.092521 31.7100068 314.62932 33.1274926 314.087455 34.5975 314.961432 34.2299982 315.804807 33.6568789 316.617605 32.878125 317.430404 32.0993711 318.01159 31.2025051 318.361181 30.1875L318.833126 30.66C318.448576 31.7625055 317.762514 32.7599955 316.77492 33.6525 315.787326 34.5450045 314.777898 35.2274976 313.746605 35.7 312.942546 37.6425097 312.107911 39.1781194 311.242674 40.306875 310.377437 41.4356306 309.446665 42 308.450331 42zM308.345455 40.7925C308.695045 40.7925 309.149507 40.4687532 309.708852 39.82125 310.268197 39.1737468 310.845013 38.19375 311.439318 36.88125 310.303148 37.4412528 309.420444 37.9706225 308.791181 38.469375 308.161917 38.9681275 307.84729 39.4974972 307.84729 40.0575 307.84729 40.2850011 307.895358 40.4643743 307.991496 40.595625 308.087633 40.7268757 308.205618 40.7925 308.345455 40.7925z"/>
  </g>
</svg>
